<svg width="18" height="19" viewBox="0 0 18 19" fill="none" xmlns="http://www.w3.org/2000/svg">
<path d="M3.56249 11.875H4.74999C5.40609 11.875 5.93749 11.343 5.93749 10.6875V9.49999C5.93749 8.84389 5.40609 8.31249 4.74999 8.31249H3.56249C2.9064 8.31249 2.375 8.84389 2.375 9.49999V10.6875C2.375 11.343 2.9064 11.875 3.56249 11.875ZM3.56249 9.49999H4.74999V10.6875H3.56249V9.49999ZM13.0625 16.6249H14.25C14.9061 16.6249 15.4375 16.0935 15.4375 15.4375V14.25C15.4375 13.5939 14.9061 13.0625 14.25 13.0625H13.0625C12.407 13.0625 11.875 13.5939 11.875 14.25V15.4375C11.875 16.0935 12.4064 16.6249 13.0625 16.6249ZM13.0625 14.25H14.25V15.4375H13.0625V14.25ZM13.0625 11.875H14.25C14.9061 11.875 15.4375 11.343 15.4375 10.6875V9.49999C15.4375 8.84389 14.9061 8.31249 14.25 8.31249H13.0625C12.407 8.31249 11.875 8.84389 11.875 9.49999V10.6875C11.875 11.343 12.4064 11.875 13.0625 11.875ZM13.0625 9.49999H14.25V10.6875H13.0625V9.49999ZM15.4375 1.1875H13.0625V0.593749C13.0625 0.265994 12.7965 0 12.4688 0C12.141 0 11.875 0.265994 11.875 0.593749V1.1875H5.93752V0.593749C5.93749 0.265994 5.6715 0 5.34374 0C5.01599 0 4.74999 0.265994 4.74999 0.593749V1.1875H2.375C1.06342 1.1875 0 2.25092 0 3.56249V16.6249C0 17.9365 1.06342 19 2.375 19H15.4375C16.7491 19 17.8125 17.9366 17.8125 16.6249V3.56249C17.8125 2.25089 16.7491 1.1875 15.4375 1.1875ZM16.625 16.6249C16.625 17.2811 16.0936 17.8125 15.4375 17.8125H2.375C1.7189 17.8125 1.1875 17.2805 1.1875 16.6249V5.93749H16.625V16.6249H16.625ZM16.625 4.74999H1.1875V3.56249C1.1875 2.9064 1.7189 2.375 2.375 2.375H4.74999V2.96875C4.74999 3.2965 5.01599 3.56249 5.34374 3.56249C5.6715 3.56249 5.93749 3.2965 5.93749 2.96875V2.375H11.875V2.96875C11.875 3.2965 12.141 3.56249 12.4687 3.56249C12.7965 3.56249 13.0625 3.2965 13.0625 2.96875V2.375H15.4375C16.0936 2.375 16.625 2.9064 16.625 3.56249V4.74999ZM8.31249 16.6249H9.49999C10.1561 16.6249 10.6875 16.0935 10.6875 15.4375V14.25C10.6875 13.5939 10.1561 13.0625 9.49999 13.0625H8.31249C7.65701 13.0625 7.12499 13.5939 7.12499 14.25V15.4375C7.12499 16.0935 7.65639 16.6249 8.31249 16.6249ZM8.31249 14.25H9.49999V15.4375H8.31249V14.25ZM8.31249 11.875H9.49999C10.1561 11.875 10.6875 11.343 10.6875 10.6875V9.49999C10.6875 8.84389 10.1561 8.31249 9.49999 8.31249H8.31249C7.65701 8.31249 7.12499 8.84389 7.12499 9.49999V10.6875C7.12499 11.343 7.65639 11.875 8.31249 11.875ZM8.31249 9.49999H9.49999V10.6875H8.31249V9.49999ZM3.56249 16.6249H4.74999C5.40609 16.6249 5.93749 16.0935 5.93749 15.4375V14.25C5.93749 13.5939 5.40609 13.0625 4.74999 13.0625H3.56249C2.9064 13.0625 2.375 13.5939 2.375 14.25V15.4375C2.375 16.0935 2.9064 16.6249 3.56249 16.6249ZM3.56249 14.25H4.74999V15.4375H3.56249V14.25Z" fill="#A88771"/>
</svg>
