<svg width="174" height="83" viewBox="0 0 174 83" fill="none" xmlns="http://www.w3.org/2000/svg">
<path d="M165.921 39.8406C170.294 39.8406 173.841 36.294 173.841 31.9204C173.841 27.5466 170.294 24 165.921 24C161.546 24 158 27.5466 158 31.9204C158 36.294 161.546 39.8406 165.921 39.8406Z" fill="#A88771"/>
<path d="M15.3565 35.6376L16.3475 30.6793L7.00914 30.6619C32.1843 14.8639 62.3506 6.41541 87.7881 6.41541C113.202 6.41541 136.523 14.0464 155.037 27.4008C155.896 25.9278 157.076 24.6642 158.479 23.7052C139.466 8.59498 116.3 0 89.044 0C61.7252 0 27.4125 9.98555 1.14217 29.9264L0 35.6376H15.3565Z" fill="#A88771"/>
<path d="M140.193 35.6379H137.439C134.631 35.6379 131.958 35.6208 129.766 37.6079C126.74 40.3506 125.53 44.2522 125.53 48.2428C125.53 50.0176 125.858 51.9791 126.935 53.2855C128.404 55.0703 130.687 55.4102 132.878 55.4102H147.799L146.808 60.3741H132.727C129.265 60.3741 125.501 60.3076 122.662 58.0559C119.811 55.7932 118.648 52.008 118.648 48.0561C118.648 42.5672 120.723 37.1126 125.104 33.6387C128.427 31.0034 132.412 30.6798 136.474 30.6798H147.128L144.843 42.1087H138.9L140.193 35.6379ZM95.5842 55.4102H100.581C102.552 55.4102 104.876 55.4536 106.458 54.5068C107.421 53.9308 108.15 52.7933 108.319 51.2491C108.589 48.7771 106.747 47.5543 104.004 47.5543H97.1554L95.5842 55.4102ZM111.003 44.74C113.778 45.4735 115.48 47.8394 115.325 50.7942C114.925 58.4351 108.832 60.3741 102.289 60.3741H88.0142L92.9595 35.6379H87.3418L88.3331 30.6798H105.672C108.364 30.6798 111.86 30.7635 113.992 32.5531C115.57 33.8793 116.285 35.7121 116.153 37.6967C115.967 40.4775 114.347 43.2202 111.003 44.4654V44.74ZM98.2434 42.1087H102.133C103.518 42.1087 105.268 42.1142 106.696 41.6485C108.058 41.2038 109.169 40.1369 109.354 38.4159C109.432 37.6849 109.333 36.9259 108.758 36.4063C107.917 35.645 106.22 35.6379 105.136 35.6379H99.5382L98.2434 42.1087ZM66.5117 30.6798L62.9448 48.5155H63.3282L78.9516 30.6798H85.2529L79.3141 60.3741H72.7362L76.3319 42.3912H75.9524L60.2959 60.3741H53.9949L58.9413 35.6379H53.3238L54.3159 30.6798H66.5117ZM28.7936 35.6379H23.1768L24.1933 30.6787L50.6289 30.6798L45.6835 55.4102H49.2947L47.3795 65.3366H41.4356L42.3568 60.3748L22.4071 60.368L21.4837 65.3366H15.5391L17.4553 55.4102H18.9671C21.5586 54.5991 23.2844 52.3903 24.5588 48.5155L28.7936 35.6379ZM43.0321 35.6379H35.0261L31.351 47.3461C30.4118 50.3358 29.1834 53.5132 27.1803 55.4102H39.1038L43.0321 35.6379Z" fill="white"/>
<path d="M54.4597 21.2292C65.0718 18.8892 75.1923 17.7794 84.7374 17.7909C100.772 17.81 115.176 20.9925 127.546 26.812L126.981 28.0194C114.784 22.2808 100.57 19.1419 84.7374 19.1233C69.7185 19.1048 53.2378 21.8959 35.6336 27.9379L35.4163 27.306L35.166 26.6863C56.5395 17.9887 74.8605 13.8365 92.8499 13.9199C107.758 13.9894 122.42 16.9676 138.383 22.6796C122.148 14.8101 105.293 10.8391 87.6159 10.8045C66.4502 10.7632 44.0896 16.3621 20.1898 27.6646L19.6211 26.4578C43.699 15.0717 66.2478 9.4307 87.6159 9.4724C109.005 9.51375 129.197 15.2474 148.54 26.6086L148.202 27.1833L147.949 27.7999C128.115 19.6198 110.645 15.3347 92.8448 15.2517C80.5202 15.195 68.0236 17.1541 54.4597 21.2292Z" fill="#A88771"/>
<path d="M15.1038 78.064L14.1562 82.9998H146.551L147.497 78.064H15.1038Z" fill="#A88771"/>
<path d="M53.4086 64.2981H53.411L53.452 64.0811H147.476L147.276 65.12L147.232 65.337H53.209L53.4086 64.2981Z" fill="#A88771"/>
<path d="M145.396 70.9357L145.743 72.8615H144.321L145.396 70.9357ZM146.064 74.7187H147.155L146.112 69.6606H145.13L142.126 74.7187H143.277L143.839 73.7287H145.893L146.064 74.7187ZM143.201 69.6606H139.315L139.134 70.5711H140.573L139.746 74.7187H140.787L141.615 70.5711H143.019L143.201 69.6606ZM136.548 72.1747H135.719L136.033 70.6001H136.886C137.28 70.6001 137.506 70.8239 137.506 71.1748C137.506 71.709 137.082 72.1747 136.548 72.1747ZM137.06 69.6606H135.181L134.169 74.7187H135.211L135.532 73.1142H136.47C137.62 73.1142 138.553 72.2393 138.553 71.122C138.553 70.2949 137.953 69.6606 137.06 69.6606ZM130.644 73.8436C129.809 73.8436 129.26 73.2999 129.26 72.5123C129.26 71.496 130.09 70.5344 131.213 70.5344C132.04 70.5344 132.591 71.0665 132.591 71.8565C132.591 72.8833 131.775 73.8436 130.644 73.8436ZM130.509 74.827C132.252 74.827 133.645 73.5169 133.645 71.7806C133.645 70.503 132.72 69.5522 131.352 69.5522C129.607 69.5522 128.205 70.8624 128.205 72.5926C128.205 73.8705 129.135 74.827 130.509 74.827ZM123.774 69.6606L122.762 74.7187H123.804L124.629 70.6001H126.454L125.628 74.7187H126.671L127.683 69.6606H123.774ZM119.372 74.8181C120.644 74.8181 121.711 74.1246 122.185 72.7599H121.127C120.822 73.4167 120.218 73.8238 119.506 73.8238C118.723 73.8238 118.238 73.3291 118.238 72.5797C118.238 71.5266 119.103 70.5548 120.16 70.5548C120.825 70.5548 121.254 70.9332 121.354 71.5458H122.396C122.357 70.3926 121.479 69.5604 120.277 69.5604C118.564 69.5604 117.182 70.9308 117.182 72.6516C117.182 73.8896 118.063 74.8181 119.372 74.8181ZM111.671 73.7938H110.654L110.906 72.5361H111.917C112.251 72.5361 112.443 72.7469 112.443 73.0397C112.443 73.462 112.106 73.7938 111.671 73.7938ZM112.029 71.7066H111.073L111.309 70.5266H112.251C112.559 70.5266 112.74 70.7155 112.746 70.9956C112.746 71.4 112.429 71.7066 112.029 71.7066ZM113.006 72.0714C113.477 71.7978 113.809 71.3291 113.809 70.7871C113.809 70.1566 113.292 69.6606 112.518 69.6606H110.469L109.457 74.7187H111.623C112.598 74.7187 113.487 74.0077 113.487 73.0191C113.487 72.6145 113.324 72.265 113.006 72.0714ZM105.934 73.8436C105.1 73.8436 104.551 73.2999 104.551 72.5123C104.551 71.496 105.381 70.5344 106.503 70.5344C107.33 70.5344 107.881 71.0665 107.881 71.8565C107.881 72.8833 107.066 73.8436 105.934 73.8436ZM105.798 74.827C107.543 74.827 108.936 73.5169 108.936 71.7806C108.936 70.503 108.01 69.5522 106.642 69.5522C104.898 69.5522 103.495 70.8624 103.495 72.5926C103.495 73.8705 104.425 74.827 105.798 74.827ZM100.261 70.5919H101.629L100.99 73.7799H99.0941C99.4846 73.3401 99.7591 72.5123 100.261 70.5919ZM102.858 69.6606H99.5121C98.6162 72.8324 98.4176 73.4453 97.9127 73.7799H97.5159L97.1497 75.6181H98.1087L98.2882 74.7171H101.375L101.195 75.6181H102.156L102.522 73.7799H102.033L102.858 69.6606ZM96.6144 69.6606L93.6347 72.7026L94.2459 69.6606H93.2035L92.1926 74.7187H92.9156L95.9366 71.6388L95.3169 74.7187H96.3586L97.3707 69.6606H96.6144ZM89.5839 73.7938H88.5657L88.817 72.5361H89.8291C90.1626 72.5361 90.3554 72.7469 90.3554 73.0397C90.3554 73.462 90.0179 73.7938 89.5839 73.7938ZM89.9406 71.7066H88.984L89.2204 70.5266H90.1626C90.4709 70.5266 90.6533 70.7155 90.6569 70.9956C90.6569 71.4 90.3419 71.7066 89.9406 71.7066ZM90.9182 72.0714C91.39 71.7978 91.7211 71.3291 91.7211 70.7871C91.7211 70.1566 91.203 69.6606 90.4295 69.6606H88.3797L87.3682 74.7187H89.5355C90.5112 74.7187 91.3979 74.0077 91.3979 73.0191C91.3979 72.6145 91.235 72.265 90.9182 72.0714ZM84.7386 69.6606H83.518L82.2698 71.2464L81.6539 69.6606H80.531L81.5334 72.064L79.4154 74.7187H80.6578L82.0484 72.9552L82.7256 74.7187H83.8549L82.7869 72.1035L84.7386 69.6606ZM75.3454 73.772H74.5044L74.8247 72.1674H75.6497C76.0735 72.1674 76.3429 72.4161 76.3429 72.8035C76.3429 73.3241 75.9038 73.772 75.3454 73.772ZM78.5916 69.6606L77.5802 74.7187H78.6223L79.6325 69.6606H78.5916ZM75.8394 71.2208H75.0143L75.3258 69.6606H74.2844L73.2728 74.7187H75.3073C76.5068 74.7187 77.4034 73.8712 77.4034 72.7221C77.4034 71.8633 76.7827 71.2208 75.8394 71.2208ZM70.663 73.7938H69.6452L69.8972 72.5361H70.9093C71.2425 72.5361 71.4356 72.7469 71.4356 73.0397C71.4356 73.462 71.0981 73.7938 70.663 73.7938ZM71.0215 71.7066H70.0649L70.3006 70.5266H71.2425C71.5511 70.5266 71.7324 70.7155 71.7375 70.9956C71.7375 71.4 71.4224 71.7066 71.0215 71.7066ZM71.9974 72.0714C72.4695 71.7978 72.8013 71.3291 72.8013 70.7871C72.8013 70.1566 72.283 69.6606 71.5105 69.6606H69.4595L68.4485 74.7187H70.6157C71.5914 74.7187 72.4784 74.0077 72.4784 73.0191C72.4784 72.6145 72.3152 72.265 71.9974 72.0714ZM64.9262 73.8436C64.0923 73.8436 63.5428 73.2999 63.5428 72.5123C63.5428 71.496 64.373 70.5344 65.4959 70.5344C66.3224 70.5344 66.8738 71.0665 66.8738 71.8565C66.8738 72.8833 66.0576 73.8436 64.9262 73.8436ZM64.791 74.827C66.5345 74.827 67.9286 73.5169 67.9286 71.7806C67.9286 70.503 67.002 69.5522 65.6339 69.5522C63.8906 69.5522 62.4871 70.8624 62.4871 72.5926C62.4871 73.8705 63.4182 74.827 64.791 74.827ZM60.0395 72.1747H59.2099L59.5257 70.6001H60.3781C60.7719 70.6001 60.9978 70.8239 60.9978 71.1748C60.9978 71.709 60.573 72.1747 60.0395 72.1747ZM60.5514 69.6606H58.6714L57.6603 74.7187H58.702L59.0229 73.1142H59.9615C61.1115 73.1142 62.0445 72.2393 62.0445 71.122C62.0445 70.2949 61.4451 69.6606 60.5514 69.6606ZM57.7441 69.6613H54.8896L53.8782 74.7187H54.9203L55.7474 70.5912H57.557L57.7441 69.6613ZM52.7795 69.6606L49.8005 72.7026L50.4107 69.6606H49.3688L48.3574 74.7187H49.0814L52.1017 71.6388L51.4834 74.7187H52.5244L53.5351 69.6606H52.7795ZM45.0894 69.6606H44.0473L43.2209 73.7799H41.4484L42.2741 69.6606H41.2327L40.221 74.7171H43.5955L43.4151 75.6181H44.3748L44.7416 73.7799H44.2654L45.0894 69.6606ZM39.8721 70.5858L40.0585 69.6606H37.0406L36.0294 74.7187H39.1261L39.3125 73.7867H37.2552L37.4912 72.6082H39.2831L39.4651 71.7059H37.6736L37.897 70.5858H39.8721ZM33.7542 72.1747H32.9236L33.24 70.6001H34.0921C34.4862 70.6001 34.7114 70.8239 34.7114 71.1748C34.7114 71.709 34.2877 72.1747 33.7542 72.1747ZM34.2649 69.6606H32.385L31.3736 74.7187H32.4157L32.7372 73.1142H33.6758C34.8259 73.1142 35.7593 72.2393 35.7593 71.122C35.7593 70.2949 35.1591 69.6606 34.2649 69.6606ZM27.8484 73.8436C27.0152 73.8436 26.465 73.2999 26.465 72.5123C26.465 71.496 27.2953 70.5344 28.4183 70.5344C29.2461 70.5344 29.796 71.0665 29.796 71.8565C29.796 72.8833 28.9814 73.8436 27.8484 73.8436ZM27.7134 74.827C29.4578 74.827 30.8516 73.5169 30.8516 71.7806C30.8516 70.503 29.9251 69.5522 28.5569 69.5522C26.8128 69.5522 25.4097 70.8624 25.4097 72.5926C25.4097 73.8705 26.3406 74.827 27.7134 74.827ZM22.6287 73.7938H21.6115L21.8636 72.5361H22.875C23.2082 72.5361 23.402 72.7469 23.402 73.0397C23.402 73.462 23.0645 73.7938 22.6287 73.7938ZM22.9872 71.7066H22.0299L22.2663 70.5266H23.2082C23.5165 70.5266 23.6988 70.7155 23.7039 70.9956C23.7039 71.4 23.3881 71.7066 22.9872 71.7066ZM23.9636 72.0714C24.4357 71.7978 24.7675 71.3291 24.7675 70.7871C24.7675 70.1566 24.2487 69.6606 23.4754 69.6606H21.4259L20.4138 74.7187H22.5808C23.556 74.7187 24.4448 74.0077 24.4448 73.0191C24.4448 72.6145 24.2816 72.265 23.9636 72.0714ZM17.2677 70.5919H18.6365L17.9965 73.7799H16.102C16.4913 73.3401 16.7666 72.5123 17.2677 70.5919ZM19.865 69.6606H16.5186C15.6238 72.8324 15.4249 73.4453 14.9207 73.7799H14.5237L14.1562 75.6181H15.1167L15.2959 74.7171H18.3824L18.2032 75.6181H19.1636L19.5293 73.7799H19.041L19.865 69.6606Z" fill="white"/>
</svg>
