<svg width="81" height="81" viewBox="0 0 81 81" fill="none" xmlns="http://www.w3.org/2000/svg">
<circle cx="40.5" cy="40.5" r="40.5" fill="#314671"/>
<path d="M14.2 40.05H21.5V43.7H14.2V40.05ZM30.4564 31.5V49H25.5064V35.325H22.2564V31.5H30.4564ZM40.8133 49.35C39.3133 49.35 37.9799 48.9917 36.8133 48.275C35.6466 47.5583 34.7299 46.5167 34.0633 45.15C33.4133 43.7667 33.0883 42.1333 33.0883 40.25C33.0883 38.3667 33.4133 36.7417 34.0633 35.375C34.7299 33.9917 35.6466 32.9417 36.8133 32.225C37.9799 31.5083 39.3133 31.15 40.8133 31.15C42.2966 31.15 43.6216 31.5083 44.7883 32.225C45.9549 32.9417 46.8633 33.9917 47.5133 35.375C48.1799 36.7417 48.5133 38.3667 48.5133 40.25C48.5133 42.1333 48.1799 43.7667 47.5133 45.15C46.8633 46.5167 45.9549 47.5583 44.7883 48.275C43.6216 48.9917 42.2966 49.35 40.8133 49.35ZM40.8133 45.3C41.6466 45.3 42.3049 44.9 42.7883 44.1C43.2883 43.2833 43.5383 42 43.5383 40.25C43.5383 38.5 43.2883 37.225 42.7883 36.425C42.3049 35.6083 41.6466 35.2 40.8133 35.2C39.9633 35.2 39.2883 35.6083 38.7883 36.425C38.3049 37.225 38.0633 38.5 38.0633 40.25C38.0633 42 38.3049 43.2833 38.7883 44.1C39.2883 44.9 39.9633 45.3 40.8133 45.3ZM53.3725 42.58C52.3192 42.58 51.4592 42.2333 50.7925 41.54C50.1259 40.8467 49.7925 39.9 49.7925 38.7C49.7925 37.9133 49.9459 37.2267 50.2525 36.64C50.5592 36.0533 50.9792 35.6067 51.5125 35.3C52.0592 34.98 52.6792 34.82 53.3725 34.82C54.4392 34.82 55.3059 35.1733 55.9725 35.88C56.6392 36.5733 56.9725 37.5133 56.9725 38.7C56.9725 39.9 56.6392 40.8467 55.9725 41.54C55.3059 42.2333 54.4392 42.58 53.3725 42.58ZM61.6525 35H64.5325L54.9725 49H52.0925L61.6525 35ZM53.3725 40.68C53.7325 40.68 54.0192 40.52 54.2325 40.2C54.4459 39.88 54.5525 39.38 54.5525 38.7C54.5525 38.02 54.4459 37.52 54.2325 37.2C54.0192 36.88 53.7325 36.72 53.3725 36.72C53.0259 36.72 52.7392 36.8867 52.5125 37.22C52.2992 37.54 52.1925 38.0333 52.1925 38.7C52.1925 39.3667 52.2992 39.8667 52.5125 40.2C52.7392 40.52 53.0259 40.68 53.3725 40.68ZM63.2525 49.18C62.1859 49.18 61.3192 48.8333 60.6525 48.14C59.9992 47.4467 59.6725 46.5 59.6725 45.3C59.6725 44.1133 60.0059 43.1733 60.6725 42.48C61.3392 41.7733 62.1992 41.42 63.2525 41.42C64.3192 41.42 65.1859 41.7733 65.8525 42.48C66.5192 43.1733 66.8525 44.1133 66.8525 45.3C66.8525 46.5 66.5192 47.4467 65.8525 48.14C65.1859 48.8333 64.3192 49.18 63.2525 49.18ZM63.2525 47.28C63.6125 47.28 63.8992 47.12 64.1125 46.8C64.3259 46.48 64.4325 45.98 64.4325 45.3C64.4325 44.62 64.3259 44.12 64.1125 43.8C63.8992 43.48 63.6125 43.32 63.2525 43.32C62.8925 43.32 62.6059 43.48 62.3925 43.8C62.1792 44.12 62.0725 44.62 62.0725 45.3C62.0725 45.98 62.1792 46.48 62.3925 46.8C62.6059 47.12 62.8925 47.28 63.2525 47.28Z" fill="white"/>
</svg>
