<svg width="81" height="81" viewBox="0 0 81 81" fill="none" xmlns="http://www.w3.org/2000/svg">
<circle cx="40.5" cy="40.5" r="40.5" fill="#314671"/>
<path d="M14.2 40.05H21.5V43.7H14.2V40.05ZM36.6279 45.075V49H23.0029V45.9L29.5529 39.775C30.1863 39.175 30.6113 38.6667 30.8279 38.25C31.0446 37.8167 31.1529 37.3833 31.1529 36.95C31.1529 36.3833 30.9613 35.9417 30.5779 35.625C30.1946 35.3083 29.6363 35.15 28.9029 35.15C28.2529 35.15 27.6529 35.3 27.1029 35.6C26.5696 35.8833 26.1279 36.3 25.7779 36.85L22.1029 34.8C22.7863 33.6667 23.7446 32.775 24.9779 32.125C26.2113 31.475 27.6696 31.15 29.3529 31.15C30.6863 31.15 31.8613 31.3667 32.8779 31.8C33.9113 32.2333 34.7113 32.8583 35.2779 33.675C35.8613 34.475 36.1529 35.4083 36.1529 36.475C36.1529 37.425 35.9446 38.325 35.5279 39.175C35.1279 40.0083 34.3446 40.9583 33.1779 42.025L29.8779 45.075H36.6279ZM45.7693 49.35C44.2693 49.35 42.936 48.9917 41.7693 48.275C40.6027 47.5583 39.686 46.5167 39.0193 45.15C38.3693 43.7667 38.0443 42.1333 38.0443 40.25C38.0443 38.3667 38.3693 36.7417 39.0193 35.375C39.686 33.9917 40.6027 32.9417 41.7693 32.225C42.936 31.5083 44.2693 31.15 45.7693 31.15C47.2527 31.15 48.5777 31.5083 49.7443 32.225C50.911 32.9417 51.8193 33.9917 52.4693 35.375C53.136 36.7417 53.4693 38.3667 53.4693 40.25C53.4693 42.1333 53.136 43.7667 52.4693 45.15C51.8193 46.5167 50.911 47.5583 49.7443 48.275C48.5777 48.9917 47.2527 49.35 45.7693 49.35ZM45.7693 45.3C46.6027 45.3 47.261 44.9 47.7443 44.1C48.2443 43.2833 48.4943 42 48.4943 40.25C48.4943 38.5 48.2443 37.225 47.7443 36.425C47.261 35.6083 46.6027 35.2 45.7693 35.2C44.9193 35.2 44.2443 35.6083 43.7443 36.425C43.261 37.225 43.0193 38.5 43.0193 40.25C43.0193 42 43.261 43.2833 43.7443 44.1C44.2443 44.9 44.9193 45.3 45.7693 45.3ZM58.3286 42.58C57.2753 42.58 56.4153 42.2333 55.7486 41.54C55.0819 40.8467 54.7486 39.9 54.7486 38.7C54.7486 37.9133 54.9019 37.2267 55.2086 36.64C55.5153 36.0533 55.9353 35.6067 56.4686 35.3C57.0153 34.98 57.6353 34.82 58.3286 34.82C59.3953 34.82 60.2619 35.1733 60.9286 35.88C61.5953 36.5733 61.9286 37.5133 61.9286 38.7C61.9286 39.9 61.5953 40.8467 60.9286 41.54C60.2619 42.2333 59.3953 42.58 58.3286 42.58ZM66.6086 35H69.4886L59.9286 49H57.0486L66.6086 35ZM58.3286 40.68C58.6886 40.68 58.9753 40.52 59.1886 40.2C59.4019 39.88 59.5086 39.38 59.5086 38.7C59.5086 38.02 59.4019 37.52 59.1886 37.2C58.9753 36.88 58.6886 36.72 58.3286 36.72C57.9819 36.72 57.6953 36.8867 57.4686 37.22C57.2553 37.54 57.1486 38.0333 57.1486 38.7C57.1486 39.3667 57.2553 39.8667 57.4686 40.2C57.6953 40.52 57.9819 40.68 58.3286 40.68ZM68.2086 49.18C67.1419 49.18 66.2753 48.8333 65.6086 48.14C64.9553 47.4467 64.6286 46.5 64.6286 45.3C64.6286 44.1133 64.9619 43.1733 65.6286 42.48C66.2953 41.7733 67.1553 41.42 68.2086 41.42C69.2753 41.42 70.1419 41.7733 70.8086 42.48C71.4753 43.1733 71.8086 44.1133 71.8086 45.3C71.8086 46.5 71.4753 47.4467 70.8086 48.14C70.1419 48.8333 69.2753 49.18 68.2086 49.18ZM68.2086 47.28C68.5686 47.28 68.8553 47.12 69.0686 46.8C69.2819 46.48 69.3886 45.98 69.3886 45.3C69.3886 44.62 69.2819 44.12 69.0686 43.8C68.8553 43.48 68.5686 43.32 68.2086 43.32C67.8486 43.32 67.5619 43.48 67.3486 43.8C67.1353 44.12 67.0286 44.62 67.0286 45.3C67.0286 45.98 67.1353 46.48 67.3486 46.8C67.5619 47.12 67.8486 47.28 68.2086 47.28Z" fill="white"/>
</svg>
