<svg width="81" height="81" viewBox="0 0 81 81" fill="none" xmlns="http://www.w3.org/2000/svg">
<circle cx="40.5" cy="40.5" r="40.5" fill="#314671"/>
<path d="M14.2 40.05H21.5V43.7H14.2V40.05ZM30.4564 31.5V49H25.5064V35.325H22.2564V31.5H30.4564ZM39.6383 37.875C42.0883 37.875 43.8966 38.375 45.0633 39.375C46.2466 40.375 46.8383 41.7083 46.8383 43.375C46.8383 44.4583 46.5549 45.4583 45.9883 46.375C45.4383 47.275 44.5883 48 43.4383 48.55C42.3049 49.0833 40.8966 49.35 39.2133 49.35C37.9799 49.35 36.7549 49.2 35.5383 48.9C34.3383 48.6 33.3049 48.175 32.4383 47.625L34.2133 43.9C34.9133 44.3667 35.6799 44.725 36.5133 44.975C37.3633 45.225 38.2133 45.35 39.0633 45.35C39.9133 45.35 40.5883 45.1917 41.0883 44.875C41.6049 44.5417 41.8633 44.0833 41.8633 43.5C41.8633 42.9167 41.6133 42.475 41.1133 42.175C40.6133 41.875 39.7299 41.725 38.4633 41.725H33.7133L34.5883 31.5H45.7383V35.325H38.6883L38.4633 37.875H39.6383ZM51.4438 42.58C50.3905 42.58 49.5305 42.2333 48.8638 41.54C48.1972 40.8467 47.8638 39.9 47.8638 38.7C47.8638 37.9133 48.0172 37.2267 48.3238 36.64C48.6305 36.0533 49.0505 35.6067 49.5838 35.3C50.1305 34.98 50.7505 34.82 51.4438 34.82C52.5105 34.82 53.3772 35.1733 54.0438 35.88C54.7105 36.5733 55.0438 37.5133 55.0438 38.7C55.0438 39.9 54.7105 40.8467 54.0438 41.54C53.3772 42.2333 52.5105 42.58 51.4438 42.58ZM59.7238 35H62.6038L53.0438 49H50.1638L59.7238 35ZM51.4438 40.68C51.8038 40.68 52.0905 40.52 52.3038 40.2C52.5172 39.88 52.6238 39.38 52.6238 38.7C52.6238 38.02 52.5172 37.52 52.3038 37.2C52.0905 36.88 51.8038 36.72 51.4438 36.72C51.0972 36.72 50.8105 36.8867 50.5838 37.22C50.3705 37.54 50.2638 38.0333 50.2638 38.7C50.2638 39.3667 50.3705 39.8667 50.5838 40.2C50.8105 40.52 51.0972 40.68 51.4438 40.68ZM61.3238 49.18C60.2572 49.18 59.3905 48.8333 58.7238 48.14C58.0705 47.4467 57.7438 46.5 57.7438 45.3C57.7438 44.1133 58.0772 43.1733 58.7438 42.48C59.4105 41.7733 60.2705 41.42 61.3238 41.42C62.3905 41.42 63.2572 41.7733 63.9238 42.48C64.5905 43.1733 64.9238 44.1133 64.9238 45.3C64.9238 46.5 64.5905 47.4467 63.9238 48.14C63.2572 48.8333 62.3905 49.18 61.3238 49.18ZM61.3238 47.28C61.6838 47.28 61.9705 47.12 62.1838 46.8C62.3972 46.48 62.5038 45.98 62.5038 45.3C62.5038 44.62 62.3972 44.12 62.1838 43.8C61.9705 43.48 61.6838 43.32 61.3238 43.32C60.9638 43.32 60.6772 43.48 60.4638 43.8C60.2505 44.12 60.1438 44.62 60.1438 45.3C60.1438 45.98 60.2505 46.48 60.4638 46.8C60.6772 47.12 60.9638 47.28 61.3238 47.28Z" fill="white"/>
</svg>
