<svg width="27" height="27" viewBox="0 0 27 27" fill="none" xmlns="http://www.w3.org/2000/svg">
<path d="M24.0469 6.69727V25.6816C24.0469 26.0313 23.908 26.3666 23.6607 26.6139C23.4135 26.8611 23.0782 27 22.7285 27H4.27148C3.92183 27 3.5865 26.8611 3.33926 26.6139C3.09202 26.3666 2.95312 26.0313 2.95312 25.6816V1.31836C2.95312 0.968709 3.09202 0.633379 3.33926 0.386139C3.5865 0.138898 3.92183 0 4.27148 0L17.3496 0L24.0469 6.69727Z" fill="#314671"/>
<path d="M25.6816 12.6562H1.31836C0.59025 12.6562 0 13.2465 0 13.9746V21.8848C0 22.6129 0.59025 23.2031 1.31836 23.2031H25.6816C26.4097 23.2031 27 22.6129 27 21.8848V13.9746C27 13.2465 26.4097 12.6562 25.6816 12.6562Z" fill="#47A4F9"/>
<path d="M24.0467 6.69516H17.3516V0L24.0467 6.69516Z" fill="#D8EFFF"/>
<path d="M6.74414 21.5605V14.299H9.18258C9.61852 14.299 9.97693 14.3812 10.2578 14.5457C10.5394 14.7104 10.7598 14.9621 10.8859 15.2629C11.023 15.5769 11.0917 15.9578 11.0921 16.4057C11.0921 16.9682 10.9993 17.3971 10.8137 17.6924C10.641 17.9778 10.375 18.1947 10.0606 18.3062C9.71764 18.424 9.3569 18.4816 8.99432 18.4766H8.34832V21.5605H6.74414ZM8.34832 17.356H8.88674C9.08396 17.356 9.23338 17.3208 9.33498 17.2505C9.44057 17.1723 9.51256 17.057 9.53643 16.9278C9.57259 16.7478 9.58904 16.5644 9.58547 16.3809C9.58739 16.2172 9.57397 16.0537 9.54539 15.8926C9.52359 15.761 9.45529 15.6416 9.35291 15.5561C9.25096 15.4725 9.09275 15.4306 8.8783 15.4306H8.35096L8.34832 17.356ZM11.8641 21.5605V14.299H13.7019C14.3347 14.299 14.8278 14.3782 15.1811 14.5368C15.5166 14.6782 15.7835 14.9453 15.9247 15.2809C16.0681 15.6184 16.1398 16.0561 16.1398 16.594V19.2307C16.1398 19.7745 16.0681 20.2184 15.9247 20.5622C15.786 20.9008 15.5213 21.1723 15.1864 21.3195C14.8369 21.4808 14.3484 21.5615 13.7209 21.5615L11.8641 21.5605ZM13.4688 20.4488H13.7198C13.9659 20.4488 14.1417 20.4137 14.2472 20.3434C14.3012 20.3064 14.347 20.2586 14.3817 20.2031C14.4163 20.1475 14.4391 20.0854 14.4486 20.0206C14.4784 19.8429 14.4919 19.6629 14.4892 19.4827V16.3187C14.4932 16.144 14.4766 15.9695 14.4397 15.7987C14.4271 15.7386 14.4017 15.6819 14.3653 15.6324C14.329 15.5829 14.2824 15.5418 14.2287 15.5118C14.1212 15.4524 13.9478 15.4225 13.7088 15.4222H13.4667L13.4688 20.4488ZM17.1159 21.5605V14.299H20.2536V15.3837H18.7196V17.2125H20.0554V18.3331H18.7196V21.5605H17.1159Z" fill="#171515"/>
</svg>
