<svg width="49" height="45" viewBox="0 0 49 45" fill="none" xmlns="http://www.w3.org/2000/svg">
<path d="M38.3393 23.0645C32.4607 23.0645 27.6781 27.847 27.6781 33.7256C27.6781 39.6043 32.4607 44.3872 38.3393 44.3872C44.2179 44.3871 49.0005 39.6046 49.0005 33.7256C49.0005 27.847 44.2175 23.0645 38.3393 23.0645ZM41.4145 35.1611H39.7749V36.8008C39.7749 37.5937 39.1322 38.2364 38.3393 38.2364C37.5464 38.2364 36.9038 37.5937 36.9038 36.8008V35.1611H35.2641C34.4712 35.1611 33.8286 34.5186 33.8286 33.7256C33.8286 32.9332 34.4712 32.29 35.2641 32.29H36.9038V30.6505C36.9038 29.8578 37.5464 29.2149 38.3393 29.2149C39.1322 29.2149 39.7749 29.8578 39.7749 30.6505V32.29H41.4145C42.2075 32.29 42.85 32.9332 42.85 33.7256C42.85 34.5186 42.2075 35.1611 41.4145 35.1611ZM15.2749 21.3227C21.1535 21.3227 25.936 16.5399 25.936 10.6612C25.936 4.78257 21.1531 0 15.2749 0C9.39624 0 4.61328 4.78257 4.61328 10.6611C4.61328 16.5402 9.39624 21.3227 15.2749 21.3227Z" fill="#314671"/>
<path d="M27.893 25.1318C26.8135 23.5515 25.449 22.1862 23.8693 21.1058C21.5306 23.0342 18.5354 24.1938 15.2744 24.1938C12.0133 24.1938 9.01811 23.0342 6.67903 21.1058C2.65012 23.8588 0 28.4884 0 33.7255V39.1074C0 42.0189 2.36827 44.3871 5.27937 44.3871H25.2686C26.5531 44.3871 27.7315 43.9258 28.6478 43.1604C26.2724 40.7208 24.8063 37.3914 24.8063 33.7254C24.8063 30.4652 25.9654 27.4705 27.893 25.1318Z" fill="#314671"/>
</svg>
