<svg width="52" height="46" viewBox="0 0 52 46" fill="none" xmlns="http://www.w3.org/2000/svg">
<path d="M48.405 10.4239L43.871 9.00927C43.8647 9.40893 43.6952 11.0085 43.6897 11.3664C43.6636 12.0271 43.3864 12.653 42.9148 13.1164C42.4431 13.5799 41.8124 13.8459 41.1513 13.8604H38.3401C37.6791 13.8459 37.0484 13.5799 36.5767 13.1164C36.105 12.653 35.8279 12.0271 35.8017 11.3664C35.6885 10.1937 35.5217 7.5058 35.4121 6.35305L33.8243 5.85461V7.35899C33.8355 8.40143 33.6398 9.43574 33.2486 10.4021C32.8574 11.3684 32.2785 12.2475 31.5453 12.9886C30.8121 13.7297 29.9392 14.3181 28.9771 14.7196C28.015 15.1211 26.9829 15.3279 25.9404 15.3279C24.8979 15.3279 23.8657 15.1211 22.9036 14.7196C21.9416 14.3181 21.0687 13.7297 20.3355 12.9886C19.6023 12.2475 19.0233 11.3684 18.6321 10.4021C18.241 9.43574 18.0453 8.40143 18.0565 7.35899V5.89086L16.4433 6.39836L16.2983 8.33774L16.0627 11.3664C16.0351 12.0268 15.7573 12.6519 15.2857 13.1151C14.8142 13.5782 14.1842 13.8447 13.5234 13.8604H10.7022C10.0421 13.843 9.41315 13.5759 8.9421 13.1131C8.47106 12.6503 8.19295 12.0261 8.16383 11.3664C8.12849 11.0221 8.01702 9.41436 7.98258 9.04552L3.59362 10.423C3.1528 10.5611 2.77812 10.8564 2.54085 11.2528C2.30357 11.6491 2.22026 12.1189 2.30674 12.5726L3.85643 20.8603C3.93861 21.2908 4.16823 21.6792 4.5058 21.9587C4.84338 22.2383 5.26781 22.3914 5.70608 22.3919H11.3738L11.4191 42.6121C11.4205 43.3715 11.7228 44.0994 12.2597 44.6365C12.7965 45.1735 13.5243 45.476 14.2837 45.4777H37.7049C38.4633 45.4755 39.1899 45.1726 39.7252 44.6354C40.2606 44.0982 40.5609 43.3705 40.5605 42.6121V22.4471H46.346C46.7852 22.4448 47.2099 22.2897 47.5472 22.0084C47.8846 21.7272 48.1135 21.3373 48.1947 20.9056L49.7009 12.5545C49.7812 12.1024 49.6938 11.6365 49.455 11.2442C49.2162 10.852 48.8435 10.5603 48.405 10.4239Z" fill="#314671"/>
<path d="M19.8705 7.35904C19.8705 8.96904 20.5101 10.5131 21.6485 11.6515C22.787 12.79 24.331 13.4296 25.941 13.4296C27.551 13.4296 29.0951 12.79 30.2335 11.6515C31.372 10.5131 32.0115 8.96904 32.0115 7.35904V6.0631C30.1225 6.99619 28.0426 7.47778 25.9357 7.46992C23.8288 7.46205 21.7525 6.96495 19.8705 6.01779V7.35904ZM35.2577 4.29501L35.1127 2.48069H16.7521L16.6071 4.2941L35.2577 4.29501ZM50.4818 2.47163H44.3791L44.2432 4.28504H50.4818C50.7222 4.28504 50.9527 4.18956 51.1226 4.0196C51.2926 3.84965 51.3881 3.61914 51.3881 3.37879C51.3881 3.13844 51.2926 2.90793 51.1226 2.73797C50.9527 2.56802 50.7222 2.47254 50.4818 2.47254V2.47163ZM7.48569 2.47163H1.51803C1.27756 2.47163 1.04694 2.56716 0.876895 2.7372C0.706856 2.90724 0.611328 3.13786 0.611328 3.37834C0.611328 3.61881 0.706856 3.84943 0.876895 4.01947C1.04694 4.18951 1.27756 4.28504 1.51803 4.28504H7.62072L7.48569 2.47163ZM37.6067 11.2305C37.6053 11.4336 37.6798 11.6298 37.8156 11.7807C37.9514 11.9316 38.1387 12.0263 38.3408 12.0462H41.152C41.9748 12.0344 41.906 10.8998 41.9585 10.2971C41.9585 10.2971 42.5086 3.25282 42.6382 1.52007C42.679 1.06332 42.3836 0.522288 41.9042 0.523194H37.5886C36.6343 0.590257 36.8772 1.83273 36.927 2.48069C36.927 2.48069 37.449 9.18241 37.6067 11.2305ZM9.90537 10.3424C9.95884 10.9324 9.90356 12.0317 10.7038 12.0462H13.524C13.7251 12.0258 13.9112 11.9306 14.0454 11.7796C14.1797 11.6285 14.2523 11.4326 14.249 11.2305C14.249 11.2305 14.8463 3.54554 14.9287 2.48069C14.9777 1.85085 15.2187 0.570319 14.2762 0.523194H9.95159C9.00638 0.59932 9.24834 1.82638 9.29909 2.47163C9.29909 2.47163 9.82109 9.12895 9.90628 10.3424H9.90537Z" fill="#314671"/>
</svg>
