<svg width="44" height="44" viewBox="0 0 44 44" fill="none" xmlns="http://www.w3.org/2000/svg">
<path d="M7.73438 7.73438V33.6875H36.2656V7.73438H7.73438ZM14.6953 29.7344H12.1172V11.6875H14.6953V29.7344ZM26.8125 27.5859C23.0216 27.5859 19.9375 24.5018 19.9375 20.7109C19.9375 16.9201 23.0216 13.8359 26.8125 13.8359C30.6034 13.8359 33.6875 16.9201 33.6875 20.7109C33.6875 24.5018 30.6034 27.5859 26.8125 27.5859Z" fill="#314671"/>
<path d="M26.8125 16.4141C24.4432 16.4141 22.5156 18.3416 22.5156 20.7109C22.5156 23.0802 24.4432 25.0078 26.8125 25.0078C29.1818 25.0078 31.1094 23.0802 31.1094 20.7109C31.1094 18.3416 29.1818 16.4141 26.8125 16.4141ZM26.8125 22.4297C25.8648 22.4297 25.0938 21.6587 25.0938 20.7109C25.0938 19.7632 25.8648 18.9922 26.8125 18.9922C27.7602 18.9922 28.5312 19.7632 28.5312 20.7109C28.5312 21.6587 27.7602 22.4297 26.8125 22.4297Z" fill="#314671"/>
<path d="M37.5547 0H6.44531C2.89137 0 0 2.89137 0 6.44531V34.9766C0 38.5305 2.89137 41.4219 6.44531 41.4219V44H11.6016V41.4219H32.3984V44H37.5547V41.4219C41.1086 41.4219 44 38.5305 44 34.9766V6.44531C44 2.89137 41.1086 0 37.5547 0ZM38.8438 36.2656H5.15625V5.15625H38.8438V36.2656Z" fill="#314671"/>
</svg>
