<svg width="50" height="50" viewBox="0 0 50 50" fill="none" xmlns="http://www.w3.org/2000/svg">
<path fill-rule="evenodd" clip-rule="evenodd" d="M33.6727 0C38.8717 0 43.0865 4.21484 43.0865 9.41383C43.0865 10.1987 42.9903 10.9611 42.8092 11.69C42.2826 11.5541 41.7467 11.4572 41.2059 11.4002C41.3761 10.7518 41.462 10.0841 41.4615 9.41373C41.4615 5.11195 37.9745 1.6249 33.6727 1.6249C29.3709 1.6249 25.8838 5.11195 25.8838 9.41373L25.8839 9.43241C25.3403 9.4336 24.7975 9.47471 24.26 9.55541C24.2592 9.50818 24.2589 9.46095 24.2588 9.41373C24.2588 4.21484 28.4737 0 33.6727 0ZM5.53965 33.0649L12.9521 46.1621C13.3105 46.7953 13.0855 47.6067 12.4523 47.9651L9.93101 49.3921C9.29777 49.7505 8.48639 49.5256 8.12797 48.8923L0.715537 35.7951C0.357123 35.1618 0.582084 34.3505 1.21533 33.9921L3.73661 32.5652C4.36986 32.2067 5.18124 32.4316 5.53965 33.0649ZM3.92674 34.763C3.80877 34.7481 3.689 34.7567 3.57437 34.7883C3.45973 34.8199 3.3525 34.874 3.25887 34.9473C3.16523 35.0206 3.08705 35.1117 3.02883 35.2154C2.97062 35.3191 2.93353 35.4333 2.9197 35.5514C2.90587 35.6695 2.91558 35.7892 2.94828 35.9035C2.98097 36.0178 3.03599 36.1246 3.11016 36.2175C3.18433 36.3104 3.27619 36.3878 3.38042 36.445C3.48465 36.5023 3.59919 36.5383 3.71742 36.551C3.95334 36.5764 4.18974 36.5076 4.3752 36.3596C4.56067 36.2116 4.68019 35.9964 4.70778 35.7607C4.73537 35.525 4.6688 35.288 4.52253 35.1012C4.37626 34.9143 4.16214 34.7928 3.92674 34.763ZM20.368 31.0039C17.2629 29.8813 16.4275 29.6217 13.3667 31.3949L8.16677 34.4076L12.8053 42.6036L12.8594 42.5725C12.9558 42.5062 13.0655 42.4616 13.1809 42.4418C13.2962 42.422 13.4145 42.4275 13.5275 42.4578L25.8161 45.7505C27.3692 46.1667 28.839 45.9785 30.2122 45.1332L47.1543 34.7041C48.0207 34.1706 48.1343 32.7163 47.6207 31.889C46.4917 30.0702 43.377 31.5753 42.0759 32.333L32.7401 37.7706C31.2708 38.6262 29.7148 38.861 28.0452 38.594C25.5103 38.1881 23.1038 37.4164 20.6278 36.7531C20.5236 36.7268 20.4257 36.6799 20.3398 36.6154C20.2538 36.5509 20.1816 36.47 20.1272 36.3773C20.0728 36.2846 20.0373 36.1821 20.0229 36.0756C20.0084 35.9691 20.0153 35.8608 20.043 35.757C20.0707 35.6532 20.1188 35.5559 20.1845 35.4708C20.2501 35.3857 20.332 35.3145 20.4254 35.2613C20.5187 35.2082 20.6218 35.1741 20.7284 35.161C20.8351 35.1479 20.9433 35.1562 21.0467 35.1853C23.0724 35.728 25.0697 36.3666 27.1281 36.7823C28.1752 36.9102 29.028 36.5984 29.3194 35.5108C29.5835 34.5253 28.9622 33.596 28.0311 33.2739C25.2284 32.761 22.5075 31.7774 20.368 31.0039ZM25.9098 11.0574C20.7109 11.0574 16.496 15.2723 16.496 20.4712C16.496 25.6702 20.7109 29.8851 25.9098 29.8851C31.1088 29.8851 35.3237 25.6702 35.3237 20.4712C35.3238 15.2723 31.1088 11.0574 25.9098 11.0574ZM25.9099 14.5468C27.5871 14.5468 28.9469 15.9065 28.9469 17.5837C28.9469 19.2609 27.5872 20.6206 25.9099 20.6206C24.2327 20.6206 22.873 19.2609 22.873 17.5837C22.873 15.9065 24.2327 14.5468 25.9099 14.5468ZM20.1333 25.696C18.8827 24.3143 18.121 22.4818 18.121 20.4712C18.121 16.1695 21.608 12.6824 25.9098 12.6824C30.2117 12.6824 33.6987 16.1695 33.6987 20.4712C33.6987 22.4818 32.937 24.3142 31.6865 25.6959C30.9876 23.1618 28.6661 21.3007 25.9098 21.3007C23.1536 21.3007 20.8322 23.1618 20.1333 25.696ZM40.0407 12.9639C45.2397 12.9639 49.4546 17.1788 49.4546 22.3778C49.4546 25.1817 48.2281 27.6988 46.283 29.4235C44.5519 29.2592 42.6677 30.1078 41.2579 30.9289L39.783 31.788C37.2589 31.7197 34.8838 30.6498 33.1564 28.7985C33.3487 28.6311 33.5352 28.4571 33.7154 28.2768C34.7492 27.2445 35.5676 26.017 36.1231 24.6658C37.1735 23.7571 38.5429 23.2072 40.0407 23.2072C42.7969 23.2072 45.1184 25.0684 45.8174 27.6025C47.0679 26.2207 47.8296 24.3883 47.8296 22.3778C47.8296 18.076 44.3425 14.5889 40.0407 14.5889C38.5206 14.5889 37.1022 15.0244 35.9035 15.7774C35.6726 15.286 35.4055 14.8125 35.1046 14.3605C36.5398 13.475 38.2306 12.9639 40.0407 12.9639ZM40.0408 16.4534C38.3636 16.4534 37.0039 17.8131 37.0039 19.4904C37.0039 21.1676 38.3636 22.5273 40.0408 22.5273C41.718 22.5273 43.0778 21.1676 43.0778 19.4904C43.0777 17.8131 41.718 16.4534 40.0408 16.4534ZM31.1957 10.7781C32.1213 11.2839 32.9699 11.9195 33.7154 12.6657C33.8474 12.7977 33.976 12.9329 34.1012 13.0714C35.1473 12.4025 36.2993 11.9158 37.5081 11.6319C36.4689 10.765 35.1317 10.2433 33.6727 10.2433C32.8182 10.2422 31.9735 10.4246 31.1957 10.7781ZM33.6727 3.48948C31.9955 3.48948 30.6357 4.8492 30.6357 6.52641C30.6357 8.20361 31.9955 9.56333 33.6727 9.56333C35.3499 9.56333 36.7096 8.20361 36.7096 6.52641C36.7096 4.8492 35.35 3.48948 33.6727 3.48948Z" fill="#314671"/>
</svg>
