<svg width="59" height="46" viewBox="0 0 59 46" fill="none" xmlns="http://www.w3.org/2000/svg">
<path d="M34.9163 40.3253C35.4016 37.3291 33.3661 34.5069 30.3699 34.0216C27.3737 33.5363 24.5514 35.5718 24.0662 38.568C23.5809 41.5642 25.6164 44.3864 28.6126 44.8717C31.6087 45.357 34.431 43.3215 34.9163 40.3253Z" fill="#314671"/>
<path d="M57.3596 11.5924C49.4397 3.67254 39.2546 0.0517578 29.5 0.0517578C19.7454 0.0517578 9.56031 3.67254 1.64036 11.5924C-0.548398 13.7837 -0.538373 17.1769 1.61997 19.3443C4.3153 22.0696 7.84424 20.9848 9.42445 19.3517C14.7891 13.9942 21.918 11.0437 29.5 11.0437C37.082 11.0437 44.2109 13.9942 49.5756 19.3517C51.1558 20.9848 54.6847 22.0696 57.38 19.3443C59.5384 17.1769 59.5484 13.7837 57.3596 11.5924Z" fill="#314671"/>
<path d="M29.4993 17.0037C24.0348 17.0037 18.1713 19.0352 13.6277 23.5778C11.411 25.7944 11.4551 29.2033 13.6499 31.3749C15.829 33.5392 19.2196 33.5301 21.3982 31.3515C23.5621 29.1877 26.439 27.9961 29.4992 27.9961C32.5593 27.9961 35.4363 29.1877 37.6002 31.3515C39.7788 33.5301 43.1694 33.5392 45.3485 31.3749C47.5433 29.2033 47.5874 25.7944 45.3706 23.5778C40.8273 19.0354 34.9638 17.0037 29.4993 17.0037Z" fill="#314671"/>
</svg>
