<svg width="43" height="45" viewBox="0 0 43 45" fill="none" xmlns="http://www.w3.org/2000/svg">
<path d="M42.9112 24.0815C42.486 19.3695 40.4492 14.9482 37.1442 11.563C36.7668 11.2004 36.2638 10.998 35.7405 10.998C35.2172 10.998 34.7142 11.2004 34.3369 11.563C33.9798 11.9101 33.7676 12.3795 33.7428 12.8769C33.7181 13.3742 33.8827 13.8624 34.2035 14.2432C35.0306 15.2275 35.7582 16.2912 36.3756 17.4189C37.8614 20.0625 38.4769 23.1069 38.1348 26.12C37.7928 29.1332 36.5107 31.9622 34.4702 34.2055C33.6008 35.1373 32.622 35.9604 31.555 36.6572V30.1216C31.5359 22.9827 25.0448 19.9595 24.7781 19.8578C20.4083 17.8318 18.2616 12.8078 18.0329 12.2362C16.9723 6.13892 13.3647 4.18905 12.0563 3.66824C11.58 2.17567 10.3542 0.454458 7.3055 0.270268C7.18593 0.264043 7.06702 0.291746 6.96251 0.350182C6.858 0.408618 6.77214 0.495407 6.71483 0.600539C6.65604 0.705759 6.62841 0.825533 6.63516 0.945872C6.64191 1.06621 6.68275 1.18214 6.75293 1.28013C7.13019 1.87128 7.32461 2.56061 7.31185 3.26175C6.09239 3.57297 3.11361 4.6527 2.74523 7.83473C2.74523 7.87284 2.67537 8.76838 1.25902 9.61946C1.00774 9.73085 0.781491 9.89174 0.593793 10.0925C0.406095 10.2933 0.260798 10.5299 0.166583 10.7881C-0.119228 11.5693 0.0649614 12.522 0.750907 13.6526C0.833475 13.7669 2.65631 16.282 5.76847 15.8882C5.75572 16.5583 5.61054 17.2192 5.3413 17.8329C5.07206 18.4466 4.68407 19.0009 4.19969 19.4641C4.15029 19.5166 4.10955 19.5766 4.07902 19.6419C3.49193 21.2356 3.27657 22.9423 3.44939 24.6319C3.6222 26.3215 4.17861 27.9493 5.07618 29.3912C5.10769 29.4465 5.14852 29.4959 5.19685 29.5373C5.23496 29.569 8.58848 32.5351 7.61037 35.5584L6.45442 38.9182C6.41901 39.0257 6.36101 39.1244 6.28433 39.2077C6.20765 39.2909 6.11406 39.3568 6.00983 39.4009L4.26956 40.1377C3.78108 40.349 3.38018 40.7219 3.13417 41.1938C2.88816 41.6658 2.81203 42.208 2.91855 42.7294C3.02507 43.2509 3.30777 43.7198 3.71916 44.0574C4.13056 44.3951 4.6456 44.5809 5.1778 44.5836H8.4678C8.90863 44.582 9.33867 44.4471 9.7014 44.1966C10.0641 43.9461 10.3426 43.5917 10.5002 43.18L12.8248 36.9938C13.5646 38.1463 14.6147 39.0666 15.8544 39.6486L14.7937 39.782C14.4683 39.8223 14.1543 39.9277 13.8704 40.0918C13.5865 40.2559 13.3385 40.4754 13.1412 40.7374C12.9439 40.9993 12.8012 41.2982 12.7218 41.6163C12.6424 41.9345 12.6277 42.2654 12.6787 42.5893C12.7792 43.1714 13.0823 43.6992 13.5345 44.0793C13.9867 44.4594 14.5587 44.6673 15.1494 44.6662H24.8797C25.337 44.7107 25.7752 44.7297 26.15 44.7297C27.5096 44.757 28.8616 44.5219 30.1323 44.0374C33.0582 42.8884 35.6314 40.9918 37.5951 38.5372C39.1466 36.6529 40.4291 34.5624 41.4059 32.3255C42.5671 29.7397 43.0836 26.9108 42.9112 24.0815ZM6.70848 8.97797H6.21307C5.98121 8.95873 5.76505 8.85303 5.60748 8.68185C5.44991 8.51067 5.36245 8.28651 5.36245 8.05385C5.36245 7.82119 5.44991 7.59703 5.60748 7.42585C5.76505 7.25466 5.98121 7.14897 6.21307 7.12973H6.70848C6.83627 7.11912 6.96488 7.13514 7.08617 7.17677C7.20747 7.2184 7.31881 7.28473 7.41316 7.37158C7.50751 7.45843 7.58282 7.5639 7.63434 7.68133C7.68585 7.79877 7.71245 7.92561 7.71245 8.05385C7.71245 8.18209 7.68585 8.30893 7.63434 8.42636C7.58282 8.5438 7.50751 8.64927 7.41316 8.73612C7.31881 8.82297 7.20747 8.8893 7.08617 8.93093C6.96488 8.97256 6.83627 8.98857 6.70848 8.97797Z" fill="#314671"/>
</svg>
