<svg width="41" height="44" viewBox="0 0 41 44" fill="none" xmlns="http://www.w3.org/2000/svg">
<path d="M37.2654 37.2139H4.68929C4.27799 37.2139 3.87071 37.2949 3.49071 37.4523C3.11071 37.6097 2.76543 37.8404 2.47459 38.1312C2.18376 38.4221 1.95305 38.7673 1.79565 39.1473C1.63825 39.5273 1.55724 39.9346 1.55724 40.3459V43.478H40.3975V40.3459C40.3975 39.5152 40.0675 38.7186 39.4801 38.1312C38.8927 37.5438 38.0961 37.2139 37.2654 37.2139ZM5.31503 34.0811V35.8602H36.6356V34.0811C36.6356 32.3494 35.2353 30.9491 33.5036 30.9491H8.44709C6.71532 30.9491 5.31503 32.3494 5.31503 34.0811ZM20.9774 6.58665C21.1568 6.58665 21.3288 6.51538 21.4557 6.38852C21.5826 6.26166 21.6538 6.08959 21.6538 5.91018V1.19857C21.6538 1.01915 21.5826 0.847091 21.4557 0.720228C21.3288 0.593365 21.1568 0.522095 20.9774 0.522095C20.7979 0.522095 20.6259 0.593365 20.499 0.720228C20.3722 0.847091 20.3009 1.01915 20.3009 1.19857V5.91018C20.3009 6.08959 20.3722 6.26166 20.499 6.38852C20.6259 6.51538 20.7979 6.58665 20.9774 6.58665ZM34.134 14.4567L34.1422 14.4689C34.479 14.2687 32.9705 15.146 38.2077 12.1188C38.286 12.0752 38.3547 12.0164 38.4101 11.9459C38.4654 11.8754 38.5062 11.7947 38.53 11.7083C38.5539 11.622 38.5603 11.5317 38.549 11.4429C38.5377 11.354 38.5089 11.2682 38.4642 11.1906C38.4195 11.113 38.3598 11.045 38.2886 10.9906C38.2174 10.9362 38.1361 10.8965 38.0494 10.8738C37.9628 10.8511 37.8725 10.8458 37.7837 10.8583C37.695 10.8708 37.6097 10.9008 37.5326 10.9465L33.467 13.2966C33.4657 13.2966 33.465 13.2966 33.4643 13.2979L33.4535 13.304C33.1389 13.4934 33.0206 13.9088 33.2052 14.2287C33.4244 14.6069 33.7342 14.6367 34.134 14.4567ZM12.7738 8.00589C12.8635 8.16135 13.0113 8.27481 13.1846 8.3213C13.358 8.3678 13.5427 8.34352 13.6982 8.25382C13.8537 8.16411 13.9671 8.01632 14.0136 7.84296C14.0601 7.66961 14.0358 7.48488 13.9461 7.32942L11.5974 3.26112C11.5071 3.10702 11.3594 2.9949 11.1867 2.94925C11.014 2.90359 10.8303 2.92809 10.6756 3.01741C10.5209 3.10673 10.4078 3.25361 10.361 3.426C10.3142 3.5984 10.3375 3.78231 10.4258 3.93759L12.7738 8.00589ZM3.23624 11.2435L7.29844 13.6125C7.37522 13.6574 7.4601 13.6867 7.54822 13.6988C7.63634 13.7108 7.72597 13.7054 7.81199 13.6828C7.89801 13.6601 7.97872 13.6208 8.04951 13.5669C8.1203 13.5131 8.17977 13.4458 8.22453 13.3689C8.5648 12.7845 8.02091 12.4665 7.66103 12.2575L3.92488 10.0793C3.7709 9.99387 3.58969 9.97187 3.41975 10.018C3.24981 10.064 3.10453 10.1746 3.01478 10.326C2.92503 10.4775 2.89789 10.658 2.93911 10.8292C2.98034 11.0004 3.08669 11.1488 3.23556 11.2428L3.23624 11.2435ZM6.05103 20.4929C6.05103 20.3134 5.97976 20.1414 5.8529 20.0145C5.72603 19.8877 5.55397 19.8164 5.37456 19.8164H0.676471C0.49706 19.8164 0.324997 19.8877 0.198134 20.0145C0.0712708 20.1414 0 20.3134 0 20.4929C0 20.6723 0.0712708 20.8443 0.198134 20.9712C0.324997 21.0981 0.49706 21.1693 0.676471 21.1693H5.37456C5.55397 21.1693 5.72603 21.0981 5.8529 20.9712C5.97976 20.8443 6.05103 20.6723 6.05103 20.4929ZM40.2717 20.823H35.5729C35.3935 20.823 35.2214 20.8942 35.0946 21.0211C34.9677 21.148 34.8964 21.32 34.8964 21.4994C34.8964 21.6789 34.9677 21.8509 35.0946 21.9778C35.2214 22.1046 35.3935 22.1759 35.5729 22.1759H40.271C40.4504 22.1759 40.6225 22.1046 40.7493 21.9778C40.8762 21.8509 40.9474 21.6789 40.9474 21.4994C40.9474 21.32 40.8762 21.148 40.7493 21.0211C40.6225 20.8942 40.4511 20.823 40.2717 20.823ZM28.1216 8.75677C28.2769 8.84647 28.4616 8.87078 28.6349 8.82435C28.8082 8.77792 28.9559 8.66455 29.0456 8.50918L31.395 4.44089C31.4847 4.28543 31.509 4.1007 31.4625 3.92734C31.416 3.75398 31.3025 3.6062 31.1471 3.51649C30.9916 3.42679 30.8069 3.40251 30.6335 3.44901C30.4602 3.4955 30.3124 3.60896 30.2227 3.76442L27.8733 7.83271C27.8289 7.90968 27.8001 7.99465 27.7886 8.08275C27.777 8.17085 27.783 8.26036 27.806 8.34617C27.8291 8.43198 27.8688 8.51241 27.9229 8.58286C27.9771 8.65331 28.0446 8.71241 28.1216 8.75677ZM18.1139 20.4841C18.1139 18.9079 19.3992 17.6226 20.9753 17.6226C22.5583 17.6226 23.8436 18.9079 23.8436 20.4841V29.5961H32.6715V20.6126C32.6715 14.1523 27.4356 8.91642 20.9753 8.91642C14.5218 8.91642 9.28591 14.1523 9.28591 20.6126V29.5961H18.1139V20.4841Z" fill="#314671"/>
<path d="M19.4668 20.4841V29.5962H22.4906V20.4841C22.4888 20.0834 22.3284 19.6997 22.0444 19.417C21.7604 19.1343 21.376 18.9756 20.9753 18.9756C20.1433 18.9756 19.4668 19.6521 19.4668 20.4841Z" fill="#314671"/>
</svg>
