<svg width="174" height="83" viewBox="0 0 174 83" fill="none" xmlns="http://www.w3.org/2000/svg">
<path d="M165.921 39.8406C170.294 39.8406 173.841 36.294 173.841 31.9204C173.841 27.5466 170.294 24 165.921 24C161.546 24 158 27.5466 158 31.9204C158 36.294 161.546 39.8406 165.921 39.8406Z" fill="#A88771"/>
<path d="M15.3565 35.6376L16.3475 30.6793L7.00914 30.6619C32.1843 14.8639 62.3506 6.41541 87.7881 6.41541C113.202 6.41541 136.523 14.0464 155.037 27.4008C155.896 25.9278 157.076 24.6642 158.479 23.7052C139.466 8.59498 116.3 0 89.044 0C61.7252 0 27.4125 9.98555 1.14217 29.9264L0 35.6376H15.3565Z" fill="#A88771"/>
<path d="M140.193 35.638H137.439C134.631 35.638 131.958 35.6209 129.766 37.608C126.74 40.3507 125.53 44.2523 125.53 48.2429C125.53 50.0177 125.858 51.9792 126.935 53.2856C128.404 55.0704 130.687 55.4103 132.878 55.4103H147.799L146.808 60.3742H132.727C129.265 60.3742 125.501 60.3077 122.662 58.056C119.811 55.7933 118.648 52.0081 118.648 48.0562C118.648 42.5674 120.723 37.1127 125.104 33.6388C128.427 31.0035 132.412 30.6799 136.474 30.6799H147.128L144.843 42.1088H138.9L140.193 35.638ZM95.5842 55.4103H100.581C102.552 55.4103 104.876 55.4537 106.458 54.5069C107.421 53.9309 108.15 52.7934 108.319 51.2492C108.589 48.7772 106.747 47.5544 104.004 47.5544H97.1554L95.5842 55.4103ZM111.003 44.7401C113.778 45.4736 115.48 47.8395 115.325 50.7943C114.925 58.4352 108.832 60.3742 102.289 60.3742H88.0142L92.9595 35.638H87.3418L88.3331 30.6799H105.672C108.364 30.6799 111.86 30.7636 113.992 32.5532C115.57 33.8794 116.285 35.7122 116.153 37.6968C115.967 40.4777 114.347 43.2203 111.003 44.4655V44.7401ZM98.2434 42.1088H102.133C103.518 42.1088 105.268 42.1143 106.696 41.6486C108.058 41.2039 109.169 40.137 109.354 38.416C109.432 37.685 109.333 36.926 108.758 36.4064C107.917 35.6451 106.22 35.638 105.136 35.638H99.5382L98.2434 42.1088ZM66.5117 30.6799L62.9448 48.5156H63.3282L78.9516 30.6799H85.2529L79.3141 60.3742H72.7362L76.3319 42.3913H75.9524L60.2959 60.3742H53.9949L58.9413 35.638H53.3238L54.3159 30.6799H66.5117ZM28.7936 35.638H23.1768L24.1933 30.6788L50.6289 30.6799L45.6835 55.4103H49.2947L47.3795 65.3367H41.4356L42.3568 60.3749L22.4071 60.3681L21.4837 65.3367H15.5391L17.4553 55.4103H18.9671C21.5586 54.5992 23.2844 52.3904 24.5588 48.5156L28.7936 35.638ZM43.0321 35.638H35.0261L31.351 47.3462C30.4118 50.3359 29.1834 53.5133 27.1803 55.4103H39.1038L43.0321 35.638Z" fill="#314671"/>
<path d="M54.4597 21.229C65.0718 18.889 75.1923 17.7792 84.7374 17.7907C100.772 17.8099 115.176 20.9923 127.546 26.8119L126.981 28.0192C114.784 22.2807 100.57 19.1418 84.7374 19.1231C69.7185 19.1047 53.2378 21.8957 35.6336 27.9377L35.4163 27.3058L35.166 26.6861C56.5395 17.9886 74.8605 13.8364 92.8499 13.9198C107.758 13.9893 122.42 16.9675 138.383 22.6795C122.148 14.81 105.293 10.8389 87.6159 10.8044C66.4502 10.763 44.0896 16.362 20.1898 27.6644L19.6211 26.4576C43.699 15.0716 66.2478 9.43056 87.6159 9.47226C109.005 9.51361 129.197 15.2473 148.54 26.6084L148.202 27.1832L147.949 27.7998C128.115 19.6197 110.645 15.3346 92.8448 15.2516C80.5202 15.1949 68.0236 17.1539 54.4597 21.229Z" fill="#A88771"/>
<path d="M15.1038 78.0642L14.1562 83H146.551L147.497 78.0642H15.1038Z" fill="#A88771"/>
<path d="M53.4086 64.2983H53.411L53.452 64.0813H147.476L147.276 65.1202L147.232 65.3372H53.209L53.4086 64.2983Z" fill="#A88771"/>
<path d="M145.396 70.9357L145.743 72.8615H144.321L145.396 70.9357ZM146.064 74.7187H147.155L146.112 69.6606H145.13L142.126 74.7187H143.277L143.839 73.7287H145.893L146.064 74.7187ZM143.201 69.6606H139.315L139.134 70.5712H140.573L139.746 74.7187H140.787L141.615 70.5712H143.019L143.201 69.6606ZM136.548 72.1748H135.719L136.033 70.6001H136.886C137.28 70.6001 137.506 70.8239 137.506 71.1749C137.506 71.709 137.082 72.1748 136.548 72.1748ZM137.06 69.6606H135.181L134.169 74.7187H135.211L135.532 73.1143H136.47C137.62 73.1143 138.553 72.2394 138.553 71.1221C138.553 70.295 137.953 69.6606 137.06 69.6606ZM130.644 73.8437C129.809 73.8437 129.26 73.2999 129.26 72.5123C129.26 71.496 130.09 70.5344 131.213 70.5344C132.04 70.5344 132.591 71.0665 132.591 71.8566C132.591 72.8833 131.775 73.8437 130.644 73.8437ZM130.509 74.827C132.252 74.827 133.645 73.5169 133.645 71.7806C133.645 70.5031 132.72 69.5523 131.352 69.5523C129.607 69.5523 128.205 70.8624 128.205 72.5926C128.205 73.8705 129.135 74.827 130.509 74.827ZM123.774 69.6606L122.762 74.7187H123.804L124.629 70.6001H126.454L125.628 74.7187H126.671L127.683 69.6606H123.774ZM119.372 74.8182C120.644 74.8182 121.711 74.1246 122.185 72.76H121.127C120.822 73.4168 120.218 73.8238 119.506 73.8238C118.723 73.8238 118.238 73.3292 118.238 72.5797C118.238 71.5267 119.103 70.5548 120.16 70.5548C120.825 70.5548 121.254 70.9333 121.354 71.5458H122.396C122.357 70.3927 121.479 69.5605 120.277 69.5605C118.564 69.5605 117.182 70.9309 117.182 72.6517C117.182 73.8897 118.063 74.8182 119.372 74.8182ZM111.671 73.7939H110.654L110.906 72.5362H111.917C112.251 72.5362 112.443 72.7469 112.443 73.0397C112.443 73.4621 112.106 73.7939 111.671 73.7939ZM112.029 71.7066H111.073L111.309 70.5266H112.251C112.559 70.5266 112.74 70.7156 112.746 70.9956C112.746 71.4001 112.429 71.7066 112.029 71.7066ZM113.006 72.0715C113.477 71.7979 113.809 71.3292 113.809 70.7872C113.809 70.1567 113.292 69.6606 112.518 69.6606H110.469L109.457 74.7187H111.623C112.598 74.7187 113.487 74.0078 113.487 73.0192C113.487 72.6146 113.324 72.265 113.006 72.0715ZM105.934 73.8437C105.1 73.8437 104.551 73.2999 104.551 72.5123C104.551 71.496 105.381 70.5344 106.503 70.5344C107.33 70.5344 107.881 71.0665 107.881 71.8566C107.881 72.8833 107.066 73.8437 105.934 73.8437ZM105.798 74.827C107.543 74.827 108.936 73.5169 108.936 71.7806C108.936 70.5031 108.01 69.5523 106.642 69.5523C104.898 69.5523 103.495 70.8624 103.495 72.5926C103.495 73.8705 104.425 74.827 105.798 74.827ZM100.261 70.5919H101.629L100.99 73.7799H99.0941C99.4846 73.3402 99.7591 72.5123 100.261 70.5919ZM102.858 69.6606H99.5121C98.6162 72.8324 98.4176 73.4454 97.9127 73.7799H97.5159L97.1497 75.6181H98.1087L98.2882 74.7171H101.375L101.195 75.6181H102.156L102.522 73.7799H102.033L102.858 69.6606ZM96.6144 69.6606L93.6347 72.7027L94.2459 69.6606H93.2035L92.1926 74.7187H92.9156L95.9366 71.6389L95.3169 74.7187H96.3586L97.3707 69.6606H96.6144ZM89.5839 73.7939H88.5657L88.817 72.5362H89.8291C90.1626 72.5362 90.3554 72.7469 90.3554 73.0397C90.3554 73.4621 90.0179 73.7939 89.5839 73.7939ZM89.9406 71.7066H88.984L89.2204 70.5266H90.1626C90.4709 70.5266 90.6533 70.7156 90.6569 70.9956C90.6569 71.4001 90.3419 71.7066 89.9406 71.7066ZM90.9182 72.0715C91.39 71.7979 91.7211 71.3292 91.7211 70.7872C91.7211 70.1567 91.203 69.6606 90.4295 69.6606H88.3797L87.3682 74.7187H89.5355C90.5112 74.7187 91.3979 74.0078 91.3979 73.0192C91.3979 72.6146 91.235 72.265 90.9182 72.0715ZM84.7386 69.6606H83.518L82.2698 71.2464L81.6539 69.6606H80.531L81.5334 72.064L79.4154 74.7187H80.6578L82.0484 72.9552L82.7256 74.7187H83.8549L82.7869 72.1035L84.7386 69.6606ZM75.3454 73.7721H74.5044L74.8247 72.1675H75.6497C76.0735 72.1675 76.3429 72.4162 76.3429 72.8035C76.3429 73.3241 75.9038 73.7721 75.3454 73.7721ZM78.5916 69.6606L77.5802 74.7187H78.6223L79.6325 69.6606H78.5916ZM75.8394 71.2208H75.0143L75.3258 69.6606H74.2844L73.2728 74.7187H75.3073C76.5068 74.7187 77.4034 73.8712 77.4034 72.7222C77.4034 71.8634 76.7827 71.2208 75.8394 71.2208ZM70.663 73.7939H69.6452L69.8972 72.5362H70.9093C71.2425 72.5362 71.4356 72.7469 71.4356 73.0397C71.4356 73.4621 71.0981 73.7939 70.663 73.7939ZM71.0215 71.7066H70.0649L70.3006 70.5266H71.2425C71.5511 70.5266 71.7324 70.7156 71.7375 70.9956C71.7375 71.4001 71.4224 71.7066 71.0215 71.7066ZM71.9974 72.0715C72.4695 71.7979 72.8013 71.3292 72.8013 70.7872C72.8013 70.1567 72.283 69.6606 71.5105 69.6606H69.4595L68.4485 74.7187H70.6157C71.5914 74.7187 72.4784 74.0078 72.4784 73.0192C72.4784 72.6146 72.3152 72.265 71.9974 72.0715ZM64.9262 73.8437C64.0923 73.8437 63.5428 73.2999 63.5428 72.5123C63.5428 71.496 64.373 70.5344 65.4959 70.5344C66.3224 70.5344 66.8738 71.0665 66.8738 71.8566C66.8738 72.8833 66.0576 73.8437 64.9262 73.8437ZM64.791 74.827C66.5345 74.827 67.9286 73.5169 67.9286 71.7806C67.9286 70.5031 67.002 69.5523 65.6339 69.5523C63.8906 69.5523 62.4871 70.8624 62.4871 72.5926C62.4871 73.8705 63.4182 74.827 64.791 74.827ZM60.0395 72.1748H59.2099L59.5257 70.6001H60.3781C60.7719 70.6001 60.9978 70.8239 60.9978 71.1749C60.9978 71.709 60.573 72.1748 60.0395 72.1748ZM60.5514 69.6606H58.6714L57.6603 74.7187H58.702L59.0229 73.1143H59.9615C61.1115 73.1143 62.0445 72.2394 62.0445 71.1221C62.0445 70.295 61.4451 69.6606 60.5514 69.6606ZM57.7441 69.6613H54.8896L53.8782 74.7187H54.9203L55.7474 70.5912H57.557L57.7441 69.6613ZM52.7795 69.6606L49.8005 72.7027L50.4107 69.6606H49.3688L48.3574 74.7187H49.0814L52.1017 71.6389L51.4834 74.7187H52.5244L53.5351 69.6606H52.7795ZM45.0894 69.6606H44.0473L43.2209 73.7799H41.4484L42.2741 69.6606H41.2327L40.221 74.7171H43.5955L43.4151 75.6181H44.3748L44.7416 73.7799H44.2654L45.0894 69.6606ZM39.8721 70.5858L40.0585 69.6606H37.0406L36.0294 74.7187H39.1261L39.3125 73.7867H37.2552L37.4912 72.6083H39.2831L39.4651 71.7059H37.6736L37.897 70.5858H39.8721ZM33.7542 72.1748H32.9236L33.24 70.6001H34.0921C34.4862 70.6001 34.7114 70.8239 34.7114 71.1749C34.7114 71.709 34.2877 72.1748 33.7542 72.1748ZM34.2649 69.6606H32.385L31.3736 74.7187H32.4157L32.7372 73.1143H33.6758C34.8259 73.1143 35.7593 72.2394 35.7593 71.1221C35.7593 70.295 35.1591 69.6606 34.2649 69.6606ZM27.8484 73.8437C27.0152 73.8437 26.465 73.2999 26.465 72.5123C26.465 71.496 27.2953 70.5344 28.4183 70.5344C29.2461 70.5344 29.796 71.0665 29.796 71.8566C29.796 72.8833 28.9814 73.8437 27.8484 73.8437ZM27.7134 74.827C29.4578 74.827 30.8516 73.5169 30.8516 71.7806C30.8516 70.5031 29.9251 69.5523 28.5569 69.5523C26.8128 69.5523 25.4097 70.8624 25.4097 72.5926C25.4097 73.8705 26.3406 74.827 27.7134 74.827ZM22.6287 73.7939H21.6115L21.8636 72.5362H22.875C23.2082 72.5362 23.402 72.7469 23.402 73.0397C23.402 73.4621 23.0645 73.7939 22.6287 73.7939ZM22.9872 71.7066H22.0299L22.2663 70.5266H23.2082C23.5165 70.5266 23.6988 70.7156 23.7039 70.9956C23.7039 71.4001 23.3881 71.7066 22.9872 71.7066ZM23.9636 72.0715C24.4357 71.7979 24.7675 71.3292 24.7675 70.7872C24.7675 70.1567 24.2487 69.6606 23.4754 69.6606H21.4259L20.4138 74.7187H22.5808C23.556 74.7187 24.4448 74.0078 24.4448 73.0192C24.4448 72.6146 24.2816 72.265 23.9636 72.0715ZM17.2677 70.5919H18.6365L17.9965 73.7799H16.102C16.4913 73.3402 16.7666 72.5123 17.2677 70.5919ZM19.865 69.6606H16.5186C15.6238 72.8324 15.4249 73.4454 14.9207 73.7799H14.5237L14.1562 75.6181H15.1167L15.2959 74.7171H18.3824L18.2032 75.6181H19.1636L19.5293 73.7799H19.041L19.865 69.6606Z" fill="#171515"/>
</svg>
