<svg width="38" height="38" viewBox="0 0 38 38" fill="none" xmlns="http://www.w3.org/2000/svg">
<g filter="url(#filter0_d_966_902)">
<circle cx="19" cy="15" r="15" fill="#A88771"/>
<path d="M24.7916 19.7858L22.4849 17.4797C23.1883 16.5629 23.5689 15.4394 23.5674 14.2839C23.5674 12.8724 23.0176 11.5458 22.0193 10.5478C21.5297 10.0555 20.9473 9.6653 20.3059 9.39963C19.6644 9.13396 18.9766 8.99814 18.2823 9.00002C16.8707 9.00002 15.5438 9.54971 14.5452 10.5478C12.4849 12.6078 12.4849 15.96 14.5452 18.0201C15.0348 18.5123 15.6172 18.9026 16.2586 19.1682C16.9001 19.4339 17.5879 19.5697 18.2823 19.5678C19.4537 19.5678 20.5637 19.1842 21.4791 18.4852L23.7858 20.7916C23.9245 20.9303 24.1066 21 24.2887 21C24.4708 21 24.6529 20.9303 24.7916 20.7916C24.8576 20.7256 24.9101 20.6472 24.9458 20.5609C24.9816 20.4746 25 20.3821 25 20.2887C25 20.1953 24.9816 20.1028 24.9458 20.0165C24.9101 19.9302 24.8576 19.8518 24.7916 19.7858ZM15.5513 17.0146C14.0451 15.5088 14.0455 13.059 15.5513 11.5533C15.9092 11.1936 16.3349 10.9086 16.8037 10.7145C17.2725 10.5204 17.7752 10.4212 18.2826 10.4226C18.79 10.4212 19.2926 10.5204 19.7614 10.7145C20.2301 10.9086 20.6557 11.1937 21.0136 11.5533C21.3734 11.911 21.6586 12.3366 21.8528 12.8053C22.047 13.274 22.1463 13.7766 22.1449 14.2839C22.1449 15.3154 21.743 16.285 21.0136 17.0146C20.2842 17.7442 19.3143 18.1452 18.2823 18.1452C17.2509 18.1452 16.2807 17.7435 15.5509 17.0146H15.5513Z" fill="white"/>
</g>
<defs>
<filter id="filter0_d_966_902" x="0" y="0" width="38" height="38" filterUnits="userSpaceOnUse" color-interpolation-filters="sRGB">
<feFlood flood-opacity="0" result="BackgroundImageFix"/>
<feColorMatrix in="SourceAlpha" type="matrix" values="0 0 0 0 0 0 0 0 0 0 0 0 0 0 0 0 0 0 127 0" result="hardAlpha"/>
<feOffset dy="4"/>
<feGaussianBlur stdDeviation="2"/>
<feComposite in2="hardAlpha" operator="out"/>
<feColorMatrix type="matrix" values="0 0 0 0 0 0 0 0 0 0 0 0 0 0 0 0 0 0 0.25 0"/>
<feBlend mode="normal" in2="BackgroundImageFix" result="effect1_dropShadow_966_902"/>
<feBlend mode="normal" in="SourceGraphic" in2="effect1_dropShadow_966_902" result="shape"/>
</filter>
</defs>
</svg>
