<svg width="16" height="19" viewBox="0 0 16 19" fill="none" xmlns="http://www.w3.org/2000/svg">
<path d="M7.56799 8.8733C8.78699 8.8733 9.84258 8.43606 10.7051 7.57342C11.5676 6.71096 12.0048 5.65566 12.0048 4.43652C12.0048 3.21774 11.5676 2.16233 10.7049 1.29955C9.84229 0.437201 8.78685 0 7.56799 0C6.34881 0 5.29348 0.437201 4.43102 1.2997C3.56856 2.16219 3.13118 3.21763 3.13118 4.43652C3.13118 5.65566 3.56853 6.71111 4.43116 7.5736C5.2938 8.43595 6.34925 8.8733 7.56799 8.8733ZM15.3312 14.1645C15.3063 13.8056 15.256 13.414 15.1819 13.0006C15.1071 12.584 15.0109 12.1903 14.8956 11.8303C14.7766 11.4583 14.6147 11.091 14.4146 10.7389C14.2069 10.3735 13.9629 10.0553 13.6891 9.79354C13.4028 9.51964 13.0523 9.29942 12.647 9.13874C12.2431 8.979 11.7955 8.89805 11.3167 8.89805C11.1286 8.89805 10.9468 8.97519 10.5956 9.20386C10.3459 9.36643 10.0955 9.52785 9.84441 9.68812C9.60311 9.84189 9.27621 9.98594 8.87244 10.1164C8.47852 10.2438 8.07855 10.3085 7.68377 10.3085C7.28902 10.3085 6.88916 10.2438 6.49481 10.1164C6.0915 9.98605 5.76461 9.84203 5.52356 9.68826C5.24401 9.50963 4.99109 9.34662 4.77169 9.20368C4.42091 8.97504 4.2389 8.89787 4.05088 8.89787C3.57191 8.89787 3.12445 8.97896 2.72068 9.13892C2.31564 9.29927 1.965 9.51949 1.67844 9.79368C1.40483 10.0556 1.16072 10.3736 0.953269 10.7389C0.753305 11.091 0.591405 11.4582 0.472211 11.8305C0.357082 12.1904 0.260842 12.584 0.18608 13.0006C0.112002 13.4135 0.0617052 13.8052 0.0368086 14.165C0.0120423 14.527 -0.000233429 14.8898 3.36082e-06 15.2527C3.36082e-06 16.2143 0.30567 16.9927 0.908441 17.5668C1.50376 18.1334 2.29146 18.4207 3.24937 18.4207H12.119C13.0769 18.4207 13.8643 18.1335 14.4598 17.5668C15.0627 16.9931 15.3684 16.2146 15.3684 15.2526C15.3683 14.8814 15.3558 14.5153 15.3312 14.1645Z" fill="#A88771"/>
</svg>
